<?xml version="1.0" standalone="no"?>
<!DOCTYPE svg PUBLIC "-//W3C//DTD SVG 20010904//EN"
 "http://www.w3.org/TR/2001/REC-SVG-20010904/DTD/svg10.dtd">
<svg version="1.0" xmlns="http://www.w3.org/2000/svg"
 width="2000.000000pt" height="600.000000pt" viewBox="0 0 2000.000000 600.000000"
 preserveAspectRatio="xMidYMid meet">

<g transform="translate(0.000000,600.000000) scale(0.100000,-0.100000)"
fill="#000000" stroke="none">
<path d="M16 4784 c-14 -14 -16 -159 -16 -1443 0 -1594 -6 -1460 72 -1616 57
-113 151 -246 215 -305 100 -92 233 -158 394 -196 68 -16 165 -18 1197 -21
l1122 -4 0 1801 0 1800 -467 0 c-278 0 -474 -4 -483 -10 -13 -8 -16 -197 -20
-1567 l-5 -1558 -270 0 c-250 1 -275 2 -342 23 -132 41 -217 147 -242 302 -7
43 -11 521 -11 1422 l0 1357 -22 15 c-20 14 -90 16 -565 16 -479 0 -543 -2
-557 -16z"/>
<path d="M3380 3000 l0 -1800 575 0 575 0 0 835 0 835 578 2 577 3 3 243 2
242 -580 0 -580 0 0 475 0 475 775 0 775 0 0 245 0 245 -1350 0 -1350 0 0
-1800z"/>
<path d="M6460 3000 l0 -1800 1350 0 1350 0 0 230 0 230 -771 2 c-750 3 -771
4 -785 22 -20 27 -21 1143 -1 1169 11 16 61 17 587 19 l575 3 3 243 2 242
-590 0 -590 0 0 475 0 475 785 0 785 0 0 245 0 245 -1350 0 -1350 0 0 -1800z"/>
<path d="M9556 4785 c-15 -15 -16 -167 -16 -1801 l0 -1784 545 0 c532 0 545 0
565 20 20 20 20 33 20 835 l0 815 253 0 c138 0 284 -5 322 -10 154 -22 241
-65 275 -136 19 -39 20 -64 20 -782 l0 -742 495 0 495 0 -2 768 -3 767 -39 72
c-73 138 -242 267 -381 290 l-50 9 97 12 c173 22 257 69 315 179 58 107 65
176 61 584 l-3 364 -28 78 c-90 257 -281 386 -668 454 -82 14 -229 16 -1175
20 -988 4 -1083 3 -1098 -12z m1866 -503 c45 -15 82 -36 115 -66 l48 -44 3
-339 c3 -333 2 -340 -19 -366 -26 -35 -81 -62 -161 -83 -50 -13 -131 -18 -400
-21 l-338 -5 0 477 0 476 343 -3 c322 -3 346 -5 409 -26z"/>
<path d="M13715 4788 c-351 -25 -612 -158 -724 -367 -61 -115 -71 -179 -71
-451 0 -276 8 -335 63 -453 73 -157 161 -262 315 -373 59 -43 350 -261 647
-484 297 -224 567 -425 600 -447 114 -77 135 -117 135 -253 0 -108 -18 -152
-77 -192 -76 -52 -132 -63 -323 -63 -192 0 -234 8 -324 65 -70 45 -86 78 -86
183 l0 87 -467 -2 -468 -3 1 -130 c2 -404 205 -608 676 -682 99 -15 187 -18
688 -18 627 0 650 2 835 61 193 62 334 173 405 318 64 131 70 168 70 441 0
278 -9 337 -70 464 -51 106 -111 190 -186 261 -33 31 -358 271 -724 535 -365
264 -681 497 -701 518 -58 59 -73 99 -77 206 -5 119 7 160 58 204 59 50 153
78 285 84 191 9 327 -24 412 -101 l48 -44 3 -101 4 -101 463 0 463 0 6 31 c10
54 7 163 -9 255 -42 241 -185 398 -440 483 -157 52 -251 63 -560 67 -594 8
-773 9 -870 2z"/>
<path d="M16000 3000 l0 -1800 445 0 445 0 2 413 3 412 716 3 716 2 12 -27
c20 -45 375 -571 444 -658 35 -44 83 -93 107 -110 l43 -30 535 -3 534 -3 -23
38 c-75 126 -554 804 -1093 1548 -159 220 -398 551 -530 735 -255 357 -485
670 -575 785 -191 244 -343 366 -546 438 -144 51 -222 57 -752 57 l-483 0 0
-1800z m1147 575 c121 -165 323 -443 451 -617 l232 -318 -470 0 -470 0 0 621
c0 606 0 620 19 617 12 -2 103 -117 238 -303z"/>
</g>
</svg>
