<?xml version="1.0" standalone="no"?>
<!DOCTYPE svg PUBLIC "-//W3C//DTD SVG 20010904//EN"
 "http://www.w3.org/TR/2001/REC-SVG-20010904/DTD/svg10.dtd">
<svg version="1.0" xmlns="http://www.w3.org/2000/svg"
 width="852.000000pt" height="851.000000pt" viewBox="0 0 852.000000 851.000000"
 preserveAspectRatio="xMidYMid meet">

<g transform="translate(0.000000,851.000000) scale(0.100000,-0.100000)"
fill="#000000" stroke="none">
<path d="M5592 8500 c-44 -10 -70 -35 -82 -79 -6 -24 -10 -1281 -10 -3679 l0
-3643 -622 4 c-512 3 -637 7 -700 20 -392 79 -593 280 -691 692 l-21 90 -6
3255 c-4 2663 -7 3259 -18 3278 -7 13 -28 32 -45 42 -31 19 -62 20 -1324 20
l-1292 0 -26 -23 c-17 -14 -30 -39 -36 -67 -12 -65 -11 -6637 1 -6724 29 -201
184 -532 388 -831 169 -247 262 -344 456 -474 313 -209 592 -309 997 -358 133
-16 346 -17 2692 -20 l2547 -4 0 4256 0 4255 -1087 -1 c-599 -1 -1103 -5
-1121 -9z"/>
</g>
</svg>
